<?xml version="1.0" encoding="UTF-8"?>
<svg width="190px" height="44px" viewBox="0 0 190 44" version="1.1" xmlns="http://www.w3.org/2000/svg" xmlns:xlink="http://www.w3.org/1999/xlink">
    <title>7253D53F-04C2-4C47-BACD-7FAC85D642BF</title>
    <g id="Page-1" stroke="none" stroke-width="1" fill="none" fill-rule="evenodd">
        <g id="Home-Page" transform="translate(-588.000000, -41.000000)">
            <g id="Group-15" transform="translate(588.000000, 41.000000)">
                <polygon id="Fill-1" fill="#1799E4" points="0 44 38 44 38 0 0 0"></polygon>
                <g id="Group-14" transform="translate(7.000000, 11.000000)" fill="#FFFFFF">
                    <path d="M22.9814402,0.000140223652 C23.3705755,0.000140223652 23.6696043,0.118208539 23.8790949,0.354345169 C24.1184316,0.590481799 24.2381,0.885792811 24.2381,1.2402782 L24.2381,29.5828437 C24.2381,30.02567 24.1036508,30.3798749 23.8341838,30.645739 C23.565001,30.8818756 23.235842,30.9999439 22.8467067,30.9999439 C22.637216,30.9999439 22.4277253,30.9556332 22.2185189,30.8670119 C22.0388742,30.7783905 21.8893599,30.6751859 21.7694073,30.5571176 L2.5136039,4.96013125 L2.5136039,29.8041166 C2.5136039,30.1288746 2.37887041,30.4093219 2.10968768,30.645739 C1.87035097,30.8818756 1.58610311,30.9999439 1.25694407,30.9999439 C0.897654769,30.9999439 0.598626011,30.8818756 0.359289306,30.645739 C0.119668353,30.4093219 0,30.1288746 0,29.8041166 L0,1.3286191 C0,0.915520225 0.119668353,0.590481799 0.359289306,0.354345169 C0.628472037,0.118208539 0.942565932,0.000140223652 1.30185524,0.000140223652 C1.78052865,0.000140223652 2.13953371,0.162519213 2.37887041,0.487277191 L21.7247803,26.2171956 L21.7247803,1.23999776 C21.7247803,0.885792811 21.8444487,0.590481799 22.0837854,0.354345169 C22.3231221,0.118208539 22.6224351,0.000140223652 22.9814402,0.000140223652 Z" id="Fill-2"></path>
                    <path d="M55.0745595,28.3870725 C55.4636948,28.3870725 55.7777887,28.5200045 56.0171254,28.7855881 C56.2865924,29.0514521 56.4210416,29.3613464 56.4210416,29.7155513 C56.4210416,30.0994837 56.2865924,30.409378 56.0171254,30.6455146 C55.7777887,30.8819317 55.4636948,31 55.0745595,31 L38.6015427,31 C38.2126917,31 37.8835326,30.8819317 37.6140656,30.6455146 C37.3747289,30.379931 37.2550606,30.055173 37.2550606,29.6712407 L37.2550606,1.32867519 C37.2550606,0.945023282 37.3747289,0.634848563 37.6140656,0.398711933 C37.8835326,0.133128335 38.2126917,0.000196313113 38.6015427,0.000196313113 L55.0745595,0.000196313113 C55.4636948,0.000196313113 55.7777887,0.133128335 56.0171254,0.398711933 C56.2865924,0.634848563 56.4210416,0.945023282 56.4210416,1.32867519 C56.4210416,1.71260755 56.2865924,2.02250183 56.0171254,2.25863846 C55.7777887,2.49477509 55.4636948,2.6128434 55.0745595,2.6128434 L40.0827584,2.6128434 L40.0827584,13.7286528 L53.0546941,13.7286528 C53.4438294,13.7286528 53.7579233,13.8615848 53.99726,14.1271684 C54.266727,14.363305 54.4011763,14.6734797 54.4011763,15.0571316 C54.4011763,15.441064 54.266727,15.7509583 53.99726,15.9870949 C53.7579233,16.2232315 53.4438294,16.3415803 53.0546941,16.3415803 L40.0827584,16.3415803 L40.0827584,28.3870725 L55.0745595,28.3870725 Z" id="Fill-4"></path>
                    <path d="M86.3033378,28.8514091 C86.5108388,29.1436352 86.614305,29.4066947 86.614305,29.6405878 C86.614305,30.0497604 86.4662119,30.3860167 86.1700256,30.6490763 C85.9034011,30.8829693 85.5921497,30.9999159 85.2368398,30.9999159 C84.7922762,30.9999159 84.4369663,30.8097726 84.1700576,30.4297665 L74.5710071,17.5827559 L65.016015,30.3860167 C64.7493905,30.7951893 64.3937964,30.9999159 63.949517,30.9999159 C63.5939229,30.9999159 63.2977366,30.8829693 63.0606739,30.6490763 C62.8531729,30.3860167 62.7497067,30.1083739 62.7497067,29.8161478 C62.7497067,29.5236413 62.8531729,29.2314152 63.0606739,28.9391891 L73.0599454,15.5220291 L63.0163312,2.1048692 C62.8088303,1.87097615 62.7050798,1.60791658 62.7050798,1.31541004 C62.7050798,0.964850906 62.838392,0.657761108 63.1050165,0.394701536 C63.4014871,0.131641965 63.7272351,0.000112178922 64.0828292,0.000112178922 C64.5271086,0.000112178922 64.8974836,0.175672191 65.1939541,0.526231322 L74.748662,13.3735223 L84.2590272,0.570261549 C84.5850595,0.190255451 84.9403693,0.000112178922 85.3255252,0.000112178922 C85.6811192,0.000112178922 85.9773055,0.117058705 86.2143682,0.350951757 C86.4809927,0.555397842 86.614305,0.81873786 86.614305,1.14013047 C86.614305,1.37402352 86.5108388,1.65166635 86.3033378,1.97333941 L76.3040663,15.4342491 L86.3033378,28.8514091 Z" id="Fill-6"></path>
                    <path d="M115.609577,0.000140223652 C115.998713,0.000140223652 116.312807,0.118208539 116.552143,0.354345169 C116.82161,0.590481799 116.956059,0.900656518 116.956059,1.28430843 C116.956059,1.66824079 116.82161,1.97813506 116.552143,2.21427169 C116.312807,2.42096136 115.998713,2.52444641 115.609577,2.52444641 L106.318367,2.52444641 L106.318367,29.6711846 C106.318367,30.0551169 106.183634,30.3798749 105.914451,30.6454585 C105.644984,30.8818756 105.315825,30.9999439 104.926974,30.9999439 C104.507993,30.9999439 104.163768,30.8818756 103.894586,30.6454585 C103.654965,30.3798749 103.535296,30.0551169 103.535296,29.6711846 L103.535296,2.52444641 L94.2440863,2.52444641 C93.854951,2.52444641 93.5257919,2.4063781 93.2566092,2.17024147 C93.0172725,1.93382439 92.8976041,1.62393012 92.8976041,1.23999776 C92.8976041,0.885792811 93.0172725,0.590481799 93.2566092,0.354345169 C93.5257919,0.118208539 93.854951,0.000140223652 94.2440863,0.000140223652 L115.609577,0.000140223652 Z" id="Fill-8"></path>
                    <path d="M149.685809,15.5000421 C149.685809,13.0029393 149.176721,10.7784313 148.158545,8.82651801 C147.169362,6.84599915 145.772853,5.31026971 143.969016,4.21961014 C142.194456,3.12895058 140.158104,2.58348057 137.859676,2.58348057 C135.561532,2.58348057 133.5104,3.12895058 131.706563,4.21961014 C129.932003,5.31026971 128.535493,6.84599915 127.517317,8.82651801 C126.528135,10.7784313 126.033544,13.0029393 126.033544,15.5000421 C126.033544,17.9971449 126.528135,20.2362361 127.517317,22.216755 C128.535493,24.1683878 129.932003,25.6898144 131.706563,26.780474 C133.5104,27.8711336 135.561532,28.4166036 137.859676,28.4166036 C140.158104,28.4166036 142.194456,27.8711336 143.969016,26.780474 C145.772853,25.6898144 147.169362,24.1683878 148.158545,22.216755 C149.176721,20.2359557 149.685809,17.9971449 149.685809,15.5000421 M152.478828,15.5000421 C152.478828,18.4565176 151.853199,21.1115122 150.602224,23.4653064 C149.351249,25.8188202 147.620179,27.6703333 145.4093,29.0192848 C143.198135,30.3396307 140.681689,30.9998037 137.859676,30.9998037 C135.037663,30.9998037 132.521217,30.3396307 130.310337,29.0192848 C128.099173,27.6703333 126.368103,25.8188202 125.117128,23.4653064 C123.866154,21.1115122 123.240808,18.4565176 123.240808,15.5000421 C123.240808,12.514961 123.866154,9.84538307 125.117128,7.49186929 C126.368103,5.13807506 128.099173,3.30114522 130.310337,1.98079931 C132.521217,0.660172955 135.037663,0 137.859676,0 C140.681689,0 143.198135,0.660172955 145.4093,1.98079931 C147.620179,3.30114522 149.351249,5.13807506 150.602224,7.49186929 C151.853199,9.84538307 152.478828,12.514961 152.478828,15.5000421" id="Fill-10"></path>
                    <path d="M181.74334,0.000140223652 C182.132476,0.000140223652 182.431504,0.118208539 182.640995,0.354345169 C182.880332,0.590481799 183,0.885792811 183,1.2402782 L183,29.5828437 C183,30.02567 182.865551,30.3798749 182.596084,30.645739 C182.326901,30.8818756 181.997742,30.9999439 181.608607,30.9999439 C181.399116,30.9999439 181.189625,30.9556332 180.980135,30.8670119 C180.800774,30.7783905 180.65126,30.6751859 180.531307,30.5571176 L161.275504,4.96013125 L161.275504,29.8041166 C161.275504,30.1288746 161.14077,30.4093219 160.871588,30.645739 C160.632251,30.8818756 160.348003,30.9999439 160.018844,30.9999439 C159.659555,30.9999439 159.360526,30.8818756 159.121189,30.645739 C158.881568,30.4093219 158.7619,30.1288746 158.7619,29.8041166 L158.7619,1.3286191 C158.7619,0.915520225 158.881568,0.590762247 159.121189,0.354345169 C159.390372,0.118208539 159.704466,0.000140223652 160.063755,0.000140223652 C160.542429,0.000140223652 160.901434,0.162519213 161.14077,0.487277191 L180.486396,26.2171956 L180.486396,1.2402782 C180.486396,0.885792811 180.606349,0.590762247 180.845685,0.354345169 C181.085022,0.118208539 181.384335,0.000140223652 181.74334,0.000140223652 Z" id="Fill-12"></path>
                </g>
            </g>
        </g>
    </g>
</svg>